<?xml version="1.0" encoding="UTF-8"?><svg id="Layer_1" xmlns="http://www.w3.org/2000/svg" viewBox="0 0 526.39 523.35"><path d="M260.48,523.35c-102.98-6.08-182.72-51.71-232.5-145.07C5,335.19-2.84,288.6,.88,240.02,8.71,137.93,78.2,49.86,172.96,16.01,209.69,2.89,247.42-2.49,286.36,1.07c55.16,5.04,104.1,25.29,146.64,60.58,45.68,37.88,75.5,86.25,87.22,144.15,16.82,83.08-.47,158.77-56.19,224.06-44.43,52.06-101.03,81.88-168.87,90.35-11.06,1.38-22.2,2.02-34.69,3.13Zm144.79-79.54c.24-.02,.48-.05,.72-.07,0-1.49,.33-3.07-.06-4.44-1.41-4.89,.89-7.99,4.23-11.21,7.19-6.94,14.31-13.98,20.96-21.44,46.35-52.01,63.02-113.43,54.36-181.51-6.64-52.16-30.45-96.67-69.35-132.11-59.43-54.12-129.33-72.72-207.38-54.49C103.4,63.15,23.14,163.13,38.39,287.84c5.75,47.01,26.02,88.05,57.98,123.14,3.46,3.8,7.56,7.19,7.11,13.25,.84-1.33,1.33-2.54,1.7-3.78,6.04-20.39,12.1-40.78,18.05-61.2,.87-3,2.41-4.6,5.5-5.57,12.35-3.91,24.57-8.23,36.89-12.21,2.4-.77,3.24-1.85,3.76-4.37,.97-4.74-2.24-5.71-5.26-6.94-9.7-3.94-17.65-9.71-22.49-19.42-6.59-13.21-11.08-27.05-13.53-41.58-.41-2.46-.64-4.95-1.02-7.42-.34-2.25-.75-4.49-1.13-6.73-.46,.12-.92,.24-1.38,.36,2.44,23.19,6.68,45.84,21.08,66.03-4.33,1.83-8.05,3.41-12.27,5.21-.69-5.2-1.32-9.62-1.85-14.05-.45-3.73-2.05-4.86-6.04-4.25-5.61,.86-11.38,.72-17.69,1.04,1.78-7.71,3.18-14.37,4.9-20.95,.98-3.71-.23-5.51-3.82-6.48-4.33-1.16-8.58-2.61-12.81-4.11-3.34-1.18-6.58-2.62-10.87-4.35,7.97-8.18,15.12-15.52,22.31-22.9-8.57-13.62-22.05-18.22-37.45-21.12,2.23-1.85,3.19-2.75,4.25-3.51,7.14-5.18,14.36-10.26,21.45-15.52,7.98-5.93,8.5-7.55,2.43-15.64-5.48-7.3-11.86-13.92-17.85-20.83-1.43-1.64-2.88-3.27-4.99-5.67,16.71-1.44,32.08-2.77,47.69-4.12,1.16-14.05-5.84-25.54-10.51-38.4,2.68,.41,4.54,.41,6.19,.99,8.76,3.08,17.6,5.99,26.13,9.63,4.34,1.85,6.09,.61,7.26-3.29,1-3.34,2.31-6.61,3.02-10.01,1.92-9.19,3.6-18.43,5.7-29.37,10.38,12.3,19.95,23.64,29.82,35.34,11.35-13.25,24.44-23.5,40.57-31,0,3.67-.2,6.78,.04,9.86,.85,11.11,1.77,22.21,2.84,33.3,.37,3.85,2.27,5.58,6.48,3.97,6.51-2.48,13.16-4.61,19.75-6.88,4.1-1.41,8.21-2.81,13.55-4.64-7.88,14.04-15.04,26.81-22.58,40.24,13.36,2.18,25.47,4.16,39.1,6.38-10.55,10.6-19.85,19.96-29.42,29.58,10.31,4.42,20.48,8.78,31.11,13.34-12.95,9.94-27.61,15.14-42.22,20.43-.09,.6-.18,1.19-.27,1.79,8.15,5.45,16.3,10.9,25.48,17.03-6.95,3.12-12.87,6.03-18.99,8.46-7.35,2.92-7.4,2.73-4.73,10.24,1.21,3.39,2.32,6.82,3.67,10.79-4.43,.67-8.19,1.17-11.92,1.83-5.06,.9-5.81,2.54-3.04,7.03,1.87,3.02,4.09,5.83,6.5,9.23-3.31,1.22-5.88,2.34-8.55,3.12-5.41,1.56-9.66,4.32-13.44,8.79-3.19,3.77-7.88,6.58-12.41,8.81-6.26,3.07-7.77,7.49-3.5,12.89,14.19,17.95,23.41,38.57,31.95,59.56,2.04,5.01,.69,9.02-3.31,12.45-3.41,2.93-6.58,6.13-10.03,9.02-2.97,2.49-3.01,4.45-.15,7.24,6.87,6.7,13.44,13.7,20.13,20.58-3.54-10.16-14.22-14.86-19.83-24.36,4.4-4.07,8.75-8.14,13.15-12.15,3.11-2.84,4.49-6.11,3-10.28-6.18-17.26-13.33-34.05-23.58-49.36-2.59-3.87-5.27-7.68-8.61-12.52,11.6,3.29,21.77,6.28,32.01,9.01,3.75,1,5.85,2.88,6.87,6.77,9.49,35.82,19.14,71.6,28.76,107.4,.36,1.33,.81,2.64,1.21,3.97l1.32-.04c.85-6.53,1.87-13.05,2.52-19.6,1.46-14.72,6.92-27.99,14.21-40.65,1.58-2.73,3.25-3.68,6.78-2.57,8.54,2.69,17.3,4.68,26,6.82,2.41,.59,4.93,.76,7.42,.99,2.49,.23,4.99,.32,7.49,.39,2.25,.06,4.51,.01,6.76,.01,.06-.45,.11-.9,.17-1.35-35.53-.91-65.49-11.52-81.73-46.27,.75,3.05,1.5,6.11,2.43,9.91-7.39-1.07-12.61-3.55-15.36-9.54-2.47-5.39-2.32-10.99,1.85-15.39,3.59-3.78,3.53-7.07,.74-10.97-.96-1.35-1.63-2.91-2.54-4.3-4.51-6.88-5.24-14.12-2.65-21.93,1.78-5.35,4.23-10.89,4.2-16.34-.06-10.64,4.67-18.69,10.82-26.58,8.95-11.48,17.91-23.21,31.41-29.44,29.68-13.69,59.26-14.86,88.29,2.5,18.37,10.99,29.9,27.96,35.01,47.47,4.23,16.15,6.56,33.77,.91,50.85-.63,1.89-.23,4.73,.8,6.47,6.5,11,3.48,20.41-8.35,25.81-2.32,1.06-4.39,2.91-6.23,4.74-6.58,6.54-12.8,13.46-19.59,19.76-3.04,2.82-3.32,4.61-1.28,8.28,3.93,7.05,7.19,14.49,10.32,21.95,1.58,3.77,2.25,7.91,3.33,11.88Zm-243.52-89.67c-1.21,.87-1.6,1-1.7,1.24-6.72,16.97-13.54,33.91-19.92,51-.7,1.87,.54,5.25,2,6.98,3.3,3.93,7.31,7.27,11.02,10.86,2.77,2.67,6.07,5.19,2.38,9.83,5.75-4.77,5.8-5.24,1.02-9.63-3.68-3.38-7.25-6.93-11.23-9.92-3.72-2.79-4.26-5.87-2.71-9.94,5.74-15.05,11.38-30.14,17.07-45.21,.55-1.45,1.13-2.87,2.06-5.23Z"/><path d="M161.75,354.14c-.93,2.35-1.52,3.78-2.06,5.23-5.69,15.07-11.33,30.16-17.07,45.21-1.55,4.07-1.02,7.15,2.71,9.94,3.98,2.98,7.55,6.54,11.23,9.92,4.78,4.39,4.73,4.86-1.02,9.63,3.69-4.64,.4-7.16-2.38-9.83-3.72-3.58-7.72-6.93-11.02-10.86-1.46-1.74-2.7-5.11-2-6.98,6.38-17.1,13.2-34.03,19.92-51,.1-.24,.49-.37,1.7-1.24Z" style="fill:#333333;"/></svg>